# xmcd
#
# Track frame offsets:
#	182
#	10972
#	23782
#	35890
#	47165
#	58955
#	72012
#	88587
#	99902
#	109885
#	123100
#	138102
#	150090
#	159500
#	173782
#	186607
#	200777
#	212067
#	224337
#	234090
#
# Disc length: 3270 seconds
#
# Revision: 3
# Processed by: cddbd v1.5.2PL0 Copyright (c) Steve Scherf et al.
# Submitted via: EasyCDDAExtractor 16.0.6.1
#
DISCID=140cc414
DTITLE=Varios - C-047 The Big Country Album CD 2
DYEAR=1996
DGENRE=Country
TTITLE0=Roger Miller - King Of The Road
TTITLE1=George Jones - I Love You Because
TTITLE2=Johnny Horton - Done Rovin'
TTITLE3=Patsy Cline - Just Out Of Reach
TTITLE4=Tommy Overstreet - Welcome To My World
TTITLE5=Ray Stevens - Oh! Lonesome Me
TTITLE6=Diana Trask - Behind Closed Doors
TTITLE7=George Jones - One Is A Lonely Number
TTITLE8=Jonny Cash - There You Go
TTITLE9=George Jones - Seasons Of My Heart
TTITLE10=Roy Clarke - Yesterday When I Was Young
TTITLE11=Joe Stampley - The Most Beautiful Girl
TTITLE12=Jonny Cash - Down The Street To 301
TTITLE13=Ray Stevens - Deep Purple
TTITLE14=Hank Thompson - I Recall A Gypsy Woman
TTITLE15=Diana Trask - There Goes My Everything
TTITLE16=Hank Locklin - Send Me The Pillow You Dream On
TTITLE17=Faron Young - Country Girl
TTITLE18=Carl Perkins - Everybody's Trying To My Baby
TTITLE19=Buck Owens - Down On The Corner Of Love
EXTD=
EXTT0=
EXTT1=
EXTT2=
EXTT3=
EXTT4=
EXTT5=
EXTT6=
EXTT7=
EXTT8=
EXTT9=
EXTT10=
EXTT11=
EXTT12=
EXTT13=
EXTT14=
EXTT15=
EXTT16=
EXTT17=
EXTT18=
EXTT19=
PLAYORDER=
